<svg viewBox="0 0 14 3.73" xmlns="http://www.w3.org/2000/svg">
	<path d="m1.68 0h-1.09a.15.15 0 0 0 -.15.13l-.44 2.79a.08.08 0 0 0 .08.08h.53a.14.14 0 0 0 .15-.1l.12-.76a.14.14 0 0 1 .12-.14h.34a1.12 1.12 0 0 0 1.27-1 .83.83 0 0 0 -.14-.7 1 1 0 0 0 -.79-.3zm.13 1c-.06.39-.36.39-.65.39h-.16l.11-.71a.1.1 0 0 1 .09-.08h.07c.2 0 .39 0 .48.12a.34.34 0 0 1 .06.28zm3.13 0h-.53a.1.1 0 0 0 -.09.07v.15-.05a.71.71 0 0 0 -.67-.17 1.2 1.2 0 0 0 -1.17 1 1 1 0 0 0 .2.8.8.8 0 0 0 .66.26 1 1 0 0 0 .72-.3v.15a.09.09 0 0 0 .08.1h.48a.14.14 0 0 0 .15-.12l.23-1.78a.08.08 0 0 0 0-.11zm-.73 1a.58.58 0 0 1 -.59.5.45.45 0 0 1 -.35-.14.42.42 0 0 1 -.08-.36.58.58 0 0 1 .58-.5.45.45 0 0 1 .35.14.47.47 0 0 1 .09.36zm3.5-1h-.52a.16.16 0 0 0 -.13.06l-.72 1.08-.34-1.02a.14.14 0 0 0 -.11-.12h-.52a.09.09 0 0 0 -.09.09 0 0 0 0 0 0 0l.57 1.69-.54.77a.08.08 0 0 0 0 .12h.06.52a.13.13 0 0 0 .11 0l1.79-2.52a.09.09 0 0 0 0-.13z" fill="#253b80" />
	<path d="m9.45 0h-1.09a.14.14 0 0 0 -.15.13l-.44 2.79a.08.08 0 0 0 .07.1h.58a.1.1 0 0 0 .1-.08l.13-.8a.14.14 0 0 1 .15-.14h.34a1.12 1.12 0 0 0 1.24-1 .83.83 0 0 0 -.14-.7 1 1 0 0 0 -.79-.3zm.12 1c-.06.39-.36.39-.64.39h-.17l.12-.71a.09.09 0 0 1 .12-.08c.2 0 .38 0 .48.12a.34.34 0 0 1 .09.28zm3.13 0h-.52a.1.1 0 0 0 -.09.07v.15-.05a.71.71 0 0 0 -.67-.17 1.2 1.2 0 0 0 -1.17 1 1 1 0 0 0 .2.8.79.79 0 0 0 .65.26 1 1 0 0 0 .72-.3v.15a.08.08 0 0 0 .08.1h.48a.14.14 0 0 0 .15-.12l.28-1.79a.08.08 0 0 0 -.07-.1zm-.7 1a.58.58 0 0 1 -.59.5.44.44 0 0 1 -.41-.12.45.45 0 0 1 0-.38.59.59 0 0 1 .59-.5.45.45 0 0 1 .35.14.47.47 0 0 1 .06.36zm1.32-1.92-.45 2.84a.08.08 0 0 0 .13.08h.46a.15.15 0 0 0 .15-.12l.39-2.78a.1.1 0 0 0 -.08-.1h-.51a.08.08 0 0 0 -.09.08z" fill="#179bd7" />
</svg>
